<?xml version="1.0" encoding="UTF-8" standalone="no"?>
<!-- Created with Inkscape (http://www.inkscape.org/) -->

<!--             by M3n747  <m3n747@o2.pl             -->

<svg
   xmlns:dc="http://purl.org/dc/elements/1.1/"
   xmlns:cc="http://creativecommons.org/ns#"
   xmlns:rdf="http://www.w3.org/1999/02/22-rdf-syntax-ns#"
   xmlns:svg="http://www.w3.org/2000/svg"
   xmlns="http://www.w3.org/2000/svg"
   xmlns:sodipodi="http://sodipodi.sourceforge.net/DTD/sodipodi-0.dtd"
   xmlns:inkscape="http://www.inkscape.org/namespaces/inkscape"
   width="797.31683"
   height="662.1662"
   id="svg4100"
   version="1.1"
   inkscape:version="0.48.5 r10040"
   sodipodi:docname="Diamond Dogs.svg">
  <defs
     id="defs4102" />
  <sodipodi:namedview
     id="base"
     pagecolor="#ffffff"
     bordercolor="#666666"
     borderopacity="1.0"
     inkscape:pageopacity="0.0"
     inkscape:pageshadow="2"
     inkscape:zoom="1"
     inkscape:cx="421.11242"
     inkscape:cy="336.41877"
     inkscape:document-units="px"
     inkscape:current-layer="g4662"
     showgrid="false"
     fit-margin-top="0"
     fit-margin-left="0"
     fit-margin-right="0"
     fit-margin-bottom="0"
     inkscape:window-width="1920"
     inkscape:window-height="1033"
     inkscape:window-x="-4"
     inkscape:window-y="-4"
     inkscape:window-maximized="1"
     showguides="true"
     inkscape:guide-bbox="true" />
  <metadata
     id="metadata4105">
    <rdf:RDF>
      <cc:Work
         rdf:about="">
        <dc:format>image/svg+xml</dc:format>
        <dc:type
           rdf:resource="http://purl.org/dc/dcmitype/StillImage" />
        <dc:title />
      </cc:Work>
    </rdf:RDF>
  </metadata>
  <g
     style="display:inline"
     inkscape:label="Diamond inside white"
     id="g4662"
     inkscape:groupmode="layer"
     transform="translate(-0.10107085,119.11535)"
     sodipodi:insensitive="true">
    <path
       sodipodi:nodetypes="cccccc"
       inkscape:connector-curvature="0"
       id="path4664"
       d="m 203.62215,-107.64329 397.65413,-0.5408 L 741.16714,63.96961 402.66941,532.11952 63.437708,64.330142 z"
       style="fill:#ffffff;stroke:none" />
  </g>
  <g
     inkscape:groupmode="layer"
     id="layer5"
     inkscape:label="Diamond sides"
     style="display:inline"
     transform="translate(-0.10107085,119.11535)"
     sodipodi:insensitive="true">
    <path
       style="fill:#f7f8fa;fill-opacity:1;stroke:#ffffff;stroke-width:1.8218925px;stroke-linecap:butt;stroke-linejoin:miter;stroke-opacity:1"
       d="m 70.095768,64.620281 c 3.113887,-0.764818 170.848562,0 170.848562,0 l 62.01825,-167.746671 -100.47474,-2.2944 z"
       id="path4642"
       inkscape:connector-curvature="0"
       sodipodi:nodetypes="ccccc" />
    <path
       style="fill:#bad2d2;fill-opacity:1;stroke:#ffffff;stroke-width:1.8218925px;stroke-linecap:butt;stroke-linejoin:miter;stroke-opacity:1"
       d="m 303.78249,-105.42079 99.75858,-0.50987 1.6993,170.550941 -162.72167,0 z"
       id="path4644"
       inkscape:connector-curvature="0"
       sodipodi:nodetypes="ccccc" />
    <path
       style="fill:#596571;fill-opacity:1;stroke:#ffffff;stroke-width:1.8218925px;stroke-linecap:butt;stroke-linejoin:miter;stroke-opacity:1"
       d="m 405.00377,-107.93921 1.85357,172.559491 164.15527,0.12746 -70.42206,-176.669351 z"
       id="path4646"
       inkscape:connector-curvature="0"
       sodipodi:nodetypes="ccccc" />
    <path
       style="fill:#c1dfe1;fill-opacity:1;stroke:#ffffff;stroke-width:1.8218925px;stroke-linecap:butt;stroke-linejoin:miter;stroke-opacity:1"
       d="m 505.65136,-103.95492 97.07464,0.0637 136.59582,168.511441 -167.65552,0 z"
       id="path4648"
       inkscape:connector-curvature="0"
       sodipodi:nodetypes="ccccc" />
    <path
       style="fill:#c1dfe1;fill-opacity:1;stroke:#ffffff;stroke-width:1.8218925px;stroke-linecap:butt;stroke-linejoin:miter;stroke-opacity:1"
       d="M 404.75557,518.48141 76.580466,66.276075 l 162.287914,0.0011 z"
       id="path4650"
       inkscape:connector-curvature="0"
       sodipodi:nodetypes="cccc" />
    <path
       style="fill:#596571;fill-opacity:1;stroke:#ffffff;stroke-width:1.8218925px;stroke-linecap:butt;stroke-linejoin:miter;stroke-opacity:1"
       d="m 242.5215,66.277351 c 7.17552,0 162.62598,0 162.62598,0 0,0 -1.89093,450.789979 -2.47807,447.184659 C 402.08225,509.85671 242.5215,66.277351 242.5215,66.277351 z"
       id="path4652"
       inkscape:connector-curvature="0"
       sodipodi:nodetypes="ccsc" />
    <path
       style="fill:#bad2d2;fill-opacity:1;stroke:#ffffff;stroke-width:1.8218925px;stroke-linecap:butt;stroke-linejoin:miter;stroke-opacity:1"
       d="m 406.75522,66.277351 164.25455,0.01597 c 0,0 -166.5055,448.971389 -166.6523,447.889819 -0.14679,-1.0816 2.39775,-447.905735 2.39775,-447.905735 z"
       id="path4654"
       inkscape:connector-curvature="0"
       sodipodi:nodetypes="cccc" />
    <path
       style="fill:#f7f8fa;fill-opacity:1;stroke:#ffffff;stroke-width:1.8218925px;stroke-linecap:butt;stroke-linejoin:miter;stroke-opacity:1"
       d="m 570.13715,66.277351 158.18799,0 c 0,0 -333.04055,460.092409 -325.40749,449.276499 7.63311,-10.81594 167.2195,-449.276499 167.2195,-449.276499 z"
       id="path4656"
       inkscape:connector-curvature="0"
       sodipodi:nodetypes="ccsc" />
  </g>
  <g
     inkscape:groupmode="layer"
     id="layer4"
     inkscape:label="Diamond outline black"
     style="display:inline"
     transform="translate(-0.10107085,119.11535)"
     sodipodi:insensitive="true">
    <path
       style="fill:none;stroke:#000000;stroke-width:21.86271477;stroke-linecap:butt;stroke-linejoin:miter;stroke-miterlimit:4;stroke-opacity:1;stroke-dasharray:none"
       d="m 203.61719,-108.17299 397.65909,-0.011 L 741.16714,63.96961 402.66941,532.11952 63.437708,64.330142 z"
       id="path4131"
       inkscape:connector-curvature="0"
       sodipodi:nodetypes="cccccc" />
  </g>
  <g
     inkscape:groupmode="layer"
     id="layer12"
     inkscape:label="Dog outline"
     style="display:inline"
     transform="translate(-0.10107085,119.11535)"
     sodipodi:insensitive="true">
    <path
       style="fill:#000000;stroke:#ffffff;stroke-width:3.643785;stroke-linecap:butt;stroke-linejoin:miter;stroke-miterlimit:4;stroke-opacity:1;stroke-dasharray:none"
       d="m 684.90851,134.55229 c 0,0 -46.67645,-79.840541 -116.10975,-143.2252752 0.73408,-22.0866518 -3.56852,-33.6275438 -5.31196,-35.7685948 -1.55995,-2.591803 -6.11344,-5.435538 -36.55652,-6.945659 -8.71728,-2.591801 -13.1108,-12.58984 -55.68781,-20.027178 -89.27161,-7.169271 -141.17883,30.764722 -162.28381,42.258795 -19.08625,20.8470949 -33.55579,42.333927 -37.77678,49.095135 -57.74739,45.099865 -70.59953,48.99065 -125.7515,82.138267 4.93122,46.69347 55.99507,80.28091 58.72022,80.75901 9.91018,14.53663 21.83143,21.19924 21.83143,21.19924 19.72495,1.84301 63.59841,1.43075 68.1802,0 4.06941,-1.27073 33.3025,-25.9896 35.22947,-27.34186 0,0 12.65616,-3.69932 27.44985,-0.67142 20.24404,55.45847 35.78778,69.90668 35.78778,69.90668 l 147.06919,7.77878 91.13547,-31.53864 z"
       id="path5952"
       inkscape:connector-curvature="0"
       sodipodi:nodetypes="ccccccccccscccccc" />
  </g>
  <g
     inkscape:groupmode="layer"
     id="layer13"
     inkscape:label="Dog mask"
     style="display:inline"
     transform="translate(-0.10107085,119.11535)"
     sodipodi:insensitive="true">
    <rect
       style="fill:#000000;stroke:#000000;stroke-width:3.68170333;stroke-linecap:butt;stroke-linejoin:miter;stroke-miterlimit:4;stroke-opacity:1;stroke-dasharray:none;stroke-dashoffset:0"
       id="rect6005"
       width="15.757271"
       height="59.549454"
       x="641.09314"
       y="-439.44415"
       transform="matrix(0.67283439,0.73979313,-0.58912103,0.80804481,0,0)"
       inkscape:transform-center-x="9.3123066"
       inkscape:transform-center-y="27.955422" />
  </g>
  <g
     inkscape:groupmode="layer"
     id="layer14"
     inkscape:label="Dog details"
     style="display:inline"
     transform="translate(-0.10107085,119.11535)"
     sodipodi:insensitive="true">
    <path
       style="fill:none;stroke:#ffffff;stroke-width:3.643785;stroke-linecap:round;stroke-linejoin:miter;stroke-miterlimit:4;stroke-opacity:1;stroke-dasharray:none"
       d="M 510.87156,104.79021 C 538.40938,86.493242 551.47455,58.022624 551.47455,58.022624"
       id="path5958"
       inkscape:connector-curvature="0"
       sodipodi:nodetypes="cc" />
    <path
       style="fill:none;stroke:#ffffff;stroke-width:3.643785;stroke-linecap:round;stroke-linejoin:miter;stroke-miterlimit:4;stroke-opacity:1;stroke-dasharray:none"
       d="m 340.42262,-13.65725 c 2.68831,-5.085936 8.21392,-7.353567 10.321,-7.353567 2.72463,0 6.00046,1.413635 8.68877,2.261294 5.4493,1.69531 6.85221,1.221992 9.71995,-0.309127 6.97511,-4.773642 10.21461,-7.090372 12.03104,-7.893414 1.90306,-1.114026 8.28293,-2.230672 8.28293,-2.230672"
       id="path5960"
       inkscape:connector-curvature="0"
       sodipodi:nodetypes="cccccc" />
    <path
       style="fill:none;stroke:#ffffff;stroke-width:3.643785;stroke-linecap:round;stroke-linejoin:miter;stroke-miterlimit:4;stroke-opacity:1;stroke-dasharray:none"
       d="m 302.35017,49.336961 c 1.01722,-0.178435 7.18714,0.0074 9.15481,0.892266 2.17973,0.981519 5.66727,3.301419 8.42826,3.301419 2.76096,0 13.87754,0 13.87754,0"
       id="path5962"
       inkscape:connector-curvature="0"
       sodipodi:nodetypes="cssc" />
    <path
       style="fill:none;stroke:#ffffff;stroke-width:3.643785;stroke-linecap:round;stroke-linejoin:miter;stroke-miterlimit:4;stroke-opacity:1;stroke-dasharray:none"
       d="m 279.77681,126.55784 c 0,0 26.71578,-5.55216 37.29934,-11.73528 10.58355,-6.18311 12.95412,-11.14858 19.15764,-14.38257 2.89127,-1.507303 16.45534,-1.619734 19.52521,0.73284 2.23431,1.71221 18.66844,8.29239 28.54985,11.23689"
       id="path5964"
       inkscape:connector-curvature="0"
       sodipodi:nodetypes="csssc" />
    <path
       style="fill:none;stroke:#ffffff;stroke-width:3.643785;stroke-linecap:round;stroke-linejoin:miter;stroke-miterlimit:4;stroke-opacity:1;stroke-dasharray:none"
       d="m 235.66568,91.776461 c 0.3633,-11.437442 13.75946,-22.190788 20.05232,-29.112011 5.33004,-5.862226 14.60307,-2.539034 19.14429,-2.539034 2.05886,0 8.02096,-14.004807 8.02096,-18.526357 0,-2.159958 -0.2055,-3.840473 -0.2055,-3.840473"
       id="path5966"
       inkscape:connector-curvature="0"
       sodipodi:nodetypes="csssc" />
    <path
       style="fill:none;stroke:#ffffff;stroke-width:3.643785;stroke-linecap:round;stroke-linejoin:miter;stroke-miterlimit:4;stroke-opacity:1;stroke-dasharray:none"
       d="m 155.35388,130.39412 c 0.43594,-0.0893 13.57967,-0.21099 14.8875,-2.97703 1.30783,-2.76603 2.41718,-5.41023 1.03848,-7.22304 -1.05087,-1.38176 -3.34577,-3.75841 -2.83717,-5.54296 0.50861,-1.7845 3.06223,-3.91077 4.6607,-3.91077 1.59845,0 13.74643,0.35913 16.99119,-0.6398 1.60732,-0.5419 9.15482,-8.27416 11.04216,-22.052104"
       id="path5968"
       inkscape:connector-curvature="0"
       sodipodi:nodetypes="csssscc" />
    <path
       style="fill:none;stroke:#ffffff;stroke-width:4.55473185;stroke-linecap:round;stroke-linejoin:miter;stroke-miterlimit:4;stroke-opacity:1;stroke-dasharray:none"
       d="m 205.22769,183.08757 c 1.04199,-0.36562 20.91459,-9.09458 27.76206,-9.18597 8.66893,-1.13054 20.15646,1.0509 24.64882,-1.24831 6.30884,-3.22888 31.34881,-22.01898 62.59092,-31.03217 18.78965,-5.42072 63.27943,-1.67219 66.80843,-1.44503"
       id="path5970"
       inkscape:connector-curvature="0"
       sodipodi:nodetypes="ccssc" />
    <path
       style="fill:#ffffff;stroke:#ffffff;stroke-width:1.8218925px;stroke-linecap:butt;stroke-linejoin:miter;stroke-opacity:1"
       d="m 268.24903,165.90659 16.54899,5.97297 0.33072,-15.63246 z"
       id="path5972"
       inkscape:connector-curvature="0"
       sodipodi:nodetypes="cccc" />
    <path
       style="fill:#ffffff;stroke:#ffffff;stroke-width:1.8218925px;stroke-linecap:butt;stroke-linejoin:miter;stroke-opacity:1"
       d="m 293.1959,152.62721 7.8805,5.95605 3.09449,-11.8971 z"
       id="path5976"
       inkscape:connector-curvature="0"
       sodipodi:nodetypes="cccc" />
    <path
       style="fill:#ffffff;stroke:#ffffff;stroke-width:1.8218925px;stroke-linecap:butt;stroke-linejoin:miter;stroke-opacity:1"
       d="m 309.86756,145.39509 c 0.48729,0.7314 8.29029,8.05731 8.29029,8.05731 l 4.1874,-13.06074 z"
       id="path5978"
       inkscape:connector-curvature="0"
       sodipodi:nodetypes="cccc" />
    <path
       style="fill:#ffffff;stroke:#ffffff;stroke-width:1.8218925px;stroke-linecap:butt;stroke-linejoin:miter;stroke-opacity:1"
       d="m 326.88607,140.10469 6.9179,10.5866 6.56961,-12.64774 z"
       id="path5980"
       inkscape:connector-curvature="0"
       sodipodi:nodetypes="cccc" />
    <path
       style="fill:none;stroke:#ffffff;stroke-width:3.643785;stroke-linecap:round;stroke-linejoin:miter;stroke-miterlimit:4;stroke-opacity:1;stroke-dasharray:none"
       d="m 304.8205,-6.7867758 c -0.43594,0.5353591 -12.23837,21.4550998 -9.73607,23.1097758 1.8891,1.249186 7.62902,-1.249162 8.5009,-0.178424 0.87189,1.070714 5.30399,6.156651 8.13761,6.245881 2.83366,0.08928 14.09556,-7.941206 16.34792,-9.725736 1.85687,-1.471205 17.29438,-0.513707 19.18153,-1.6953 18.87911,-11.8208395 22.5238,-12.9379186 36.14705,-17.4884948"
       id="path5986"
       inkscape:connector-curvature="0"
       sodipodi:nodetypes="csssssc" />
    <path
       style="fill:none;stroke:#ffffff;stroke-width:3.643785;stroke-linecap:round;stroke-linejoin:miter;stroke-miterlimit:4;stroke-opacity:1;stroke-dasharray:none"
       d="m 330.02606,38.061891 c 0.43593,0 8.12447,-0.494917 9.57087,-1.704266 3.4149,-2.855255 17.05402,-21.04078 20.56204,-25.608135 5.92106,-7.7090189 18.30966,-15.2578031 19.50849,-15.8377845"
       id="path5988"
       inkscape:connector-curvature="0"
       sodipodi:nodetypes="cssc" />
    <path
       style="fill:#ffffff;stroke:#ffffff;stroke-width:1.8218925px;stroke-linecap:butt;stroke-linejoin:miter;stroke-opacity:1"
       d="m 335.83273,12.377235 c -0.0727,7.617074 1.52341,20.225968 4.63761,22.315693 2.44832,1.642936 26.04356,-32.9725142 26.04356,-32.9725142 l -17.53536,9.4401042 z"
       id="path5990"
       inkscape:connector-curvature="0"
       sodipodi:nodetypes="csccc" />
    <path
       style="fill:none;stroke:#ffffff;stroke-width:3.643785;stroke-linecap:round;stroke-linejoin:miter;stroke-miterlimit:4;stroke-opacity:1;stroke-dasharray:none"
       d="m 386.01826,21.910094 c 0.41101,-0.630913 13.25808,-7.732143 17.35795,-8.168838 2.65697,-0.282968 28.02877,-0.674226 29.38949,-0.646214"
       id="path5995"
       inkscape:connector-curvature="0"
       sodipodi:nodetypes="csc" />
    <path
       style="fill:none;stroke:#ffffff;stroke-width:3.643785;stroke-linecap:round;stroke-linejoin:miter;stroke-miterlimit:4;stroke-opacity:1;stroke-dasharray:none"
       d="m 498.64071,241.00852 c 0.71925,-2.27136 9.65877,-36.46773 9.65877,-36.46773"
       id="path5997"
       inkscape:connector-curvature="0"
       sodipodi:nodetypes="cc" />
    <path
       style="fill:none;stroke:#ffffff;stroke-width:3.643785;stroke-linecap:round;stroke-linejoin:miter;stroke-miterlimit:4;stroke-opacity:1;stroke-dasharray:none"
       d="m 408.70903,-20.670545 c 1.02756,0.126187 21.74675,16.2520812 25.30002,36.437128 6.99138,39.715571 5.44552,75.060944 3.99238,87.731137 -0.53505,4.6653 -9.60281,31.86583 -10.02673,35.95029 -0.57694,5.55858 -1.01721,27.30341 -0.43593,27.4819"
       id="path5999"
       inkscape:connector-curvature="0"
       sodipodi:nodetypes="csssc" />
    <path
       style="fill:none;stroke:#ffffff;stroke-width:3.643785;stroke-linecap:butt;stroke-linejoin:miter;stroke-miterlimit:4;stroke-opacity:1;stroke-dasharray:none"
       d="m 357.54771,176.14625 c 0,0 31.77329,1.23141 39.03904,-0.018 7.26573,-1.24916 24.69794,-6.78753 30.3297,-8.60534 5.34315,1.76475 37.81388,40.4371 41.01977,41.44088 2.77811,0.86984 18.33795,3.11517 25.57542,1.42765 8.86722,-2.06754 47.59155,-24.76986 50.13356,-26.58965 16.85575,-12.06685 40.30482,-65.77248 45.11504,-80.49538 3.11367,-9.530199 -0.29547,-14.278175 -1.13757,-16.18704 -6.45583,-14.633861 -18.85993,-44.926448 -19.55429,-69.279713 -0.35625,-12.4955936 0.7242,-26.4151837 0.7242,-26.4151837"
       id="path6001"
       inkscape:connector-curvature="0"
       sodipodi:nodetypes="cscssssssc" />
  </g>
  <g
     inkscape:groupmode="layer"
     id="layer6"
     inkscape:label="Banner black"
     style="display:inline"
     transform="translate(-0.10107085,119.11535)"
     sodipodi:insensitive="true">
    <path
       style="fill:#000000;stroke:#000000;stroke-width:1.8218925px;stroke-linecap:butt;stroke-linejoin:miter;stroke-opacity:1"
       d="m 50.419011,145.14854 31.786824,70.00126 -81.1938179,43.69935 107.1250629,36.23159 -7.99231,38.74999 c 303.08493,93.30588 584.04128,6.62425 596.91199,-0.005 l -8.44043,-40.19923 107.89064,-35.42859 -80.12215,-43.88827 30.8689,-69.76284 -133.21392,42.82269 4.7746,29.63611 c 0,0 -166.00143,51.38658 -437.5323,1.41949 l 4.29738,-29.41133 z"
       id="path4673"
       inkscape:connector-curvature="0"
       sodipodi:nodetypes="ccccccccccccccc" />
  </g>
  <g
     inkscape:groupmode="layer"
     id="layer7"
     inkscape:label="Banner orange"
     style="display:inline"
     transform="translate(-0.10107085,119.11535)"
     sodipodi:insensitive="true">
    <path
       style="fill:#fae101;fill-opacity:1;stroke:#fae101;stroke-width:1.8218925px;stroke-linecap:butt;stroke-linejoin:miter;stroke-opacity:1"
       d="m 77.413403,170.80036 c 1.141755,0.2549 79.092697,25.36591 79.092697,25.36591 l -28.23255,6.11845 -16.29603,76.48022 -69.958625,-23.32646 58.956255,-31.99425 z"
       id="path4676"
       inkscape:connector-curvature="0"
       sodipodi:nodetypes="ccccccc" />
    <path
       style="fill:#a97a04;fill-opacity:1;stroke:#a97a04;stroke-width:1.8218925px;stroke-linecap:butt;stroke-linejoin:miter;stroke-opacity:1"
       d="m 173.5287,202.02977 -1.55173,11.5995 -24.81252,-5.73601 z"
       id="path4678"
       inkscape:connector-curvature="0"
       sodipodi:nodetypes="cccc" />
    <path
       style="fill:#fae101;fill-opacity:1;stroke:#fae101;stroke-width:1.8218925px;stroke-linecap:butt;stroke-linejoin:miter;stroke-opacity:1"
       d="m 643.27602,194.71503 77.63411,-25.19989 -23.14982,52.07226 58.84497,33.00675 -71.15753,23.64571 -15.10158,-77.39582 z"
       id="path4682"
       inkscape:connector-curvature="0"
       sodipodi:nodetypes="ccccccc" />
    <path
       style="fill:#fae101;fill-opacity:1;stroke:#fae101;stroke-width:1.8218925px;stroke-linecap:butt;stroke-linejoin:miter;stroke-opacity:1"
       d="m 138.18238,223.69917 -21.84541,99.42431 c 297.68751,81.06906 563.50961,-0.89225 563.50961,-0.89225 L 660.74807,220.51251 c 0,0 -246.05258,80.17676 -522.56569,3.18666 z"
       id="path4684"
       inkscape:connector-curvature="0"
       sodipodi:nodetypes="ccccc" />
    <path
       sodipodi:nodetypes="cccc"
       inkscape:connector-curvature="0"
       id="path4686"
       d="m 625.16092,200.90444 1.81276,12.74672 25.64502,-6.37336 z"
       style="fill:#a97a04;fill-opacity:1;stroke:#a97a04;stroke-width:1.8218925px;stroke-linecap:butt;stroke-linejoin:miter;stroke-opacity:1" />
  </g>
  <g
     style="display:inline"
     inkscape:label="Text path"
     id="g5918"
     inkscape:groupmode="layer"
     transform="translate(-0.10107085,119.11535)"
     sodipodi:insensitive="true">
    <g
       id="g5920"
       style="font-size:42px;font-style:normal;font-weight:normal;line-height:125%;letter-spacing:-2.29999995px;word-spacing:1px;fill:#000000;fill-opacity:1;stroke:none;font-family:Sans"
       transform="matrix(1.6440285,-0.00981241,0.00799023,2.0189514,-1.7880844,-229.76824)">
      <path
         inkscape:connector-curvature="0"
         id="path5922"
         style="font-weight:bold;fill:#000000;-inkscape-font-specification:Sans Bold"
         d="m 96.082929,239.52943 10.907131,2.03161 c 2.45963,0.45818 4.29955,0.99559 5.51979,1.61224 1.63869,0.83373 2.95489,2.01761 3.94863,3.55166 0.99367,1.5341 1.63722,3.30542 1.93066,5.31399 0.29338,2.00861 0.18222,4.39729 -0.33348,7.16606 -0.45317,2.43278 -1.14613,4.4732 -2.0789,6.12127 -1.13983,2.01281 -2.51913,3.55686 -4.1379,4.63213 -1.22272,0.81528 -2.76701,1.34119 -4.63287,1.57774 -1.39482,0.17131 -3.19435,0.0517 -5.39861,-0.35889 l -11.22971,-2.0917 z m 5.036361,6.11151 -3.64639,19.57638 4.45559,0.82992 c 1.66663,0.31044 2.8871,0.44042 3.66141,0.38995 1.01277,-0.0617 1.89221,-0.32204 2.63831,-0.78107 0.74607,-0.45903 1.44402,-1.31295 2.09386,-2.56175 0.6498,-1.2488 1.1875,-3.01566 1.61313,-5.30059 0.42557,-2.28491 0.55067,-4.07647 0.3753,-5.37469 -0.17543,-1.2982 -0.56218,-2.35763 -1.16028,-3.17832 -0.59814,-0.82064 -1.43246,-1.45584 -2.50295,-1.90559 -0.79829,-0.34336 -2.41381,-0.74163 -4.84656,-1.19479 z" />
      <path
         inkscape:connector-curvature="0"
         id="path5924"
         style="font-weight:bold;fill:#000000;-inkscape-font-specification:Sans Bold"
         d="m 118.02892,273.99429 4.59907,-29.71061 5.99887,0.9286 -4.59907,29.7106 z" />
      <path
         inkscape:connector-curvature="0"
         id="path5926"
         style="font-weight:bold;fill:#000000;-inkscape-font-specification:Sans Bold"
         d="m 154.3406,278.91125 -6.55184,-0.82452 -1.75176,-7.10342 -11.92353,-1.50053 -3.31472,6.46582 -6.38906,-0.80404 15.37221,-28.36705 6.36871,0.80148 z m -9.60412,-13.19699 -2.71718,-11.58619 -5.42175,10.56194 z" />
      <path
         inkscape:connector-curvature="0"
         id="path5928"
         style="font-weight:bold;fill:#000000;-inkscape-font-specification:Sans Bold"
         d="m 155.20062,278.975 2.4711,-29.96272 9.05422,0.74672 3.75101,20.8868 7.06091,-19.99511 9.07466,0.74841 -2.4711,29.96273 -5.62056,-0.46355 1.94519,-23.58594 -7.89277,23.09543 -5.82496,-0.4804 -3.98195,-24.07476 -1.94519,23.58594 z" />
      <path
         inkscape:connector-curvature="0"
         id="path5930"
         style="font-weight:bold;fill:#000000;-inkscape-font-specification:Sans Bold"
         d="m 187.29831,266.66969 c 0.12714,-3.05984 0.69146,-5.60892 1.69297,-7.64724 0.74657,-1.50153 1.73591,-2.83563 2.96803,-4.0023 1.23211,-1.16663 2.56386,-2.01441 3.99527,-2.54336 1.90434,-0.7145 4.07909,-1.02096 6.52426,-0.91939 4.42585,0.18394 7.91018,1.70392 10.453,4.55997 2.54277,2.8561 3.71257,6.72929 3.5094,11.61958 -0.20153,4.84934 -1.67738,8.58866 -4.42755,11.21795 -2.75022,2.6293 -6.33143,3.85228 -10.74361,3.66895 -4.46686,-0.18561 -7.96186,-1.69578 -10.48502,-4.53051 -2.52316,-2.83473 -3.68541,-6.64261 -3.48675,-11.42365 z m 6.25801,0.0548 c -0.14134,3.40137 0.53698,6.01235 2.03496,7.83293 1.49796,1.8206 3.45586,2.78113 5.87371,2.88159 2.41782,0.10047 4.43813,-0.68791 6.06094,-2.36516 1.62276,-1.67723 2.50653,-4.2575 2.65129,-7.74084 0.14301,-3.44232 -0.505,-6.04178 -1.94403,-7.79837 -1.43908,-1.75654 -3.40851,-2.68676 -5.90828,-2.79066 -2.49981,-0.10384 -4.55029,0.6696 -6.15144,2.32035 -1.60118,1.65079 -2.47356,4.20417 -2.61715,7.66016 z" />
      <path
         inkscape:connector-curvature="0"
         id="path5932"
         style="font-weight:bold;fill:#000000;-inkscape-font-specification:Sans Bold"
         d="m 218.30015,282.72025 0.19959,-30.06379 5.90612,0.0392 12.17113,20.15839 0.13329,-20.0767 5.63952,0.0374 -0.19959,30.06379 -6.09069,-0.0404 -11.98969,-19.6855 -0.13016,19.60504 z" />
      <path
         inkscape:connector-curvature="0"
         id="path5934"
         style="font-weight:bold;fill:#000000;-inkscape-font-specification:Sans Bold"
         d="m 245.52532,252.78507 11.0913,-0.27563 c 2.50116,-0.0621 4.41255,0.0818 5.73418,0.43189 1.77601,0.47559 3.30921,1.36062 4.59961,2.65511 1.29034,1.29454 2.28741,2.89379 2.99121,4.79777 0.70374,1.90402 1.09061,4.26379 1.16061,7.07931 0.0614,2.47386 -0.19309,4.61365 -0.76361,6.41939 -0.6974,2.20551 -1.72633,4.00213 -3.08678,5.38987 -1.02695,1.05123 -2.42852,1.88611 -4.20469,2.50465 -1.32892,0.45698 -3.11412,0.71333 -5.3556,0.76903 l -11.41932,0.28379 z m 6.19479,4.93356 0.49471,19.90694 4.53083,-0.1126 c 1.69477,-0.0421 2.91565,-0.16818 3.66263,-0.37822 0.97794,-0.27046 1.78422,-0.70762 2.41885,-1.31147 0.63459,-0.60384 1.14018,-1.58398 1.51677,-2.94045 0.37655,-1.35644 0.53597,-3.19641 0.47825,-5.51993 -0.0578,-2.32348 -0.3071,-4.10201 -0.74802,-5.3356 -0.44096,-1.23355 -1.03912,-2.18968 -1.79447,-2.86841 -0.7554,-0.67869 -1.70335,-1.12696 -2.84386,-1.34481 -0.85217,-0.17026 -2.51516,-0.22466 -4.989,-0.16321 z" />
      <path
         inkscape:connector-curvature="0"
         id="path5936"
         style="font-weight:bold;fill:#000000;-inkscape-font-specification:Sans Bold"
         d="m 282.67654,251.59015 11.07073,-0.72928 c 2.49653,-0.16442 4.41221,-0.0988 5.74705,0.19688 1.79399,0.40251 3.36213,1.22406 4.70441,2.46466 1.34224,1.24065 2.40392,2.79777 3.18504,4.67135 0.78107,1.87363 1.26418,4.21559 1.44933,7.02588 0.16264,2.46927 -0.004,4.61769 -0.50027,6.44526 -0.60656,2.23221 -1.5611,4.06943 -2.86363,5.51168 -0.98307,1.09237 -2.3493,1.98391 -4.09868,2.67461 -1.3091,0.51098 -3.08231,0.84017 -5.31963,0.98755 l -11.39815,0.75085 z m 6.39149,4.67593 1.30893,19.87002 4.52243,-0.29791 c 1.69163,-0.11143 2.90632,-0.28736 3.64408,-0.52779 0.96606,-0.31026 1.75377,-0.78004 2.36316,-1.40936 0.60934,-0.6293 1.0744,-1.62931 1.39517,-3.00005 0.32073,-1.37071 0.40472,-3.21567 0.25196,-5.53488 -0.15279,-2.31917 -0.47471,-4.08601 -0.96574,-5.30052 -0.49106,-1.21447 -1.12785,-2.14533 -1.91034,-2.79258 -0.78254,-0.6472 -1.74804,-1.0563 -2.89651,-1.2273 -0.85842,-0.13525 -2.52225,-0.12155 -4.9915,0.0411 z" />
      <path
         inkscape:connector-curvature="0"
         id="path5938"
         style="font-weight:bold;fill:#000000;-inkscape-font-specification:Sans Bold"
         d="m 310.01063,265.04355 c -0.29435,-3.0483 -0.0855,-5.65073 0.62653,-7.8073 0.53325,-1.58984 1.32997,-3.04719 2.39016,-4.37204 1.06019,-1.32481 2.26287,-2.34748 3.60805,-3.06803 1.78815,-0.96929 3.9002,-1.57156 6.33614,-1.80682 4.40916,-0.42572 8.06925,0.60126 10.98027,3.08097 2.91097,2.47976 4.60168,6.15556 5.07215,11.02741 0.46647,4.83106 -0.48178,8.73765 -2.84473,11.71977 -2.36301,2.98214 -5.74228,4.68543 -10.13783,5.10988 -4.45002,0.4297 -8.11932,-0.5861 -11.00793,-3.04739 -2.88861,-2.46129 -4.56288,-6.07344 -5.02281,-10.83645 z m 6.20622,-0.80532 c 0.32719,3.38855 1.35772,5.88161 3.09157,7.47918 1.73383,1.59759 3.80511,2.28009 6.21384,2.04749 2.4087,-0.23258 4.30158,-1.291 5.67863,-3.17525 1.377,-1.88423 1.89797,-4.56144 1.56291,-8.03164 -0.33117,-3.42934 -1.33009,-5.91515 -2.99676,-7.45743 -1.66671,-1.54223 -3.74524,-2.19312 -6.2356,-1.95267 -2.49038,0.2405 -4.41518,1.28826 -5.77442,3.14329 -1.35925,1.85507 -1.87264,4.50408 -1.54017,7.94703 z" />
      <path
         sodipodi:nodetypes="cccccsssssscccccccsssssccc"
         inkscape:connector-curvature="0"
         id="path5940"
         style="font-weight:bold;fill:#000000;-inkscape-font-specification:Sans Bold"
         d="m 355.32556,263.97063 -0.65243,-5.02324 12.975,-1.68522 2.15153,16.48864 -6.0663,0.87835 c 0,0 -0.32223,-2.6492 -0.35249,-2.61844 -0.50254,0.511 -3.88787,3.08219 -6.34184,3.40092 -3.11836,0.40502 -5.9217,0.10391 -8.41003,-0.90331 -2.48836,-1.00722 -4.47357,-2.65194 -5.95564,-4.93417 -1.48208,-2.28221 -2.4089,-4.85368 -2.78046,-7.71443 -0.40326,-3.10476 -0.11082,-5.94834 0.87729,-8.53073 0.98812,-2.58235 2.65265,-4.68043 4.99359,-6.29424 1.78312,-1.238 4.09827,-2.04191 6.94546,-2.41174 3.70132,-0.4807 6.69337,-0.08 8.97617,1.20202 2.28276,1.28212 3.9341,3.42166 4.89118,7.06423 l -5.87241,0.74586 c -0.6105,-1.40965 -1.55037,-2.46289 -2.81962,-3.15973 -1.26929,-0.69679 -2.77163,-0.93249 -4.50704,-0.70712 -2.63026,0.34165 -4.61328,1.44709 -5.94907,3.31633 -1.3358,1.86928 -1.79062,4.44443 -1.36446,7.72544 0.4596,3.53865 1.59067,6.09049 3.3932,7.65553 1.80252,1.56506 3.97824,2.18205 6.52715,1.85099 1.26088,-0.16376 2.49303,-0.57541 3.69644,-1.23493 1.20338,-0.6595 2.21349,-1.40076 3.03032,-2.22377 l -0.4913,-3.78268 z" />
      <path
         inkscape:connector-curvature="0"
         id="path5942"
         style="font-weight:bold;fill:#000000;-inkscape-font-specification:Sans Bold"
         d="m 369.84408,263.36767 5.73002,-1.54286 c 0.67834,1.89638 1.63035,3.21315 2.85603,3.95032 1.22566,0.73719 2.74864,0.9532 4.56895,0.64802 1.92816,-0.32324 3.31264,-0.97469 4.15347,-1.95435 0.84079,-0.97964 1.16964,-2.01556 0.98656,-3.10775 -0.11757,-0.70114 -0.42322,-1.26332 -0.91696,-1.68654 -0.49378,-0.4232 -1.28356,-0.73093 -2.36934,-0.92321 -0.74185,-0.12514 -2.41201,-0.28875 -5.01046,-0.49082 -3.3425,-0.25753 -5.75816,-0.85759 -7.247,-1.8002 -2.09382,-1.32634 -3.33739,-3.1626 -3.73072,-5.50878 -0.25318,-1.51016 -0.0619,-2.99434 0.57396,-4.45257 0.63581,-1.45818 1.70173,-2.66618 3.19775,-3.62401 1.49601,-0.95776 3.38339,-1.62767 5.66214,-2.00973 3.72149,-0.62387 6.65949,-0.27773 8.814,1.03843 2.15448,1.31622 3.50723,3.32825 4.05826,6.03611 l -5.94269,1.2666 c -0.51164,-1.48069 -1.24476,-2.48412 -2.19938,-3.01031 -0.95464,-0.52614 -2.27468,-0.64793 -3.96013,-0.3654 -1.73941,0.29163 -3.04136,0.87726 -3.90585,1.75689 -0.55688,0.56471 -0.7709,1.23134 -0.64205,1.99989 0.11755,0.70118 0.51478,1.25147 1.19171,1.65088 0.86132,0.50717 2.80587,0.86044 5.83364,1.05982 3.02775,0.19942 5.30102,0.54957 6.81979,1.05045 1.51874,0.50092 2.77933,1.32235 3.78177,2.4643 1.00239,1.14199 1.6607,2.65009 1.97493,4.52431 0.2848,1.69896 0.0796,3.36915 -0.61557,5.01059 -0.69522,1.64144 -1.84531,2.96753 -3.45027,3.97824 -1.60499,1.01073 -3.69517,1.73197 -6.27054,2.16372 -3.74848,0.62843 -6.77249,0.24472 -9.07203,-1.15113 -2.29955,-1.39583 -3.92288,-3.71947 -4.86999,-6.97091 z" />
    </g>
    <path
       sodipodi:nodetypes="cc"
       inkscape:connector-curvature="0"
       id="path5944"
       d="m 143.94677,419.7435 c 251.18681,65.77302 510.67733,0 510.67733,0"
       style="fill:none;stroke:none" />
  </g>
</svg>
